<svg width="320" height="27" viewBox="0 0 320 27" fill="none" xmlns="http://www.w3.org/2000/svg">
<g filter="url(#filter0_d)">
<path d="M7.024 5.63246H5.584C5.568 6.65646 5.552 7.70446 5.536 8.77646C5.536 9.83246 5.536 10.8965 5.536 11.9685V13.1205H7.12C8.576 13.1205 9.616 12.7685 10.24 12.0645C10.864 11.3445 11.176 10.4245 11.176 9.30446C11.176 8.13646 10.84 7.23246 10.168 6.59246C9.512 5.95246 8.464 5.63246 7.024 5.63246ZM1 5.51246V4.52846H7.456C9.488 4.52846 11.008 4.97646 12.016 5.87246C13.04 6.75246 13.552 7.89646 13.552 9.30446C13.552 10.2005 13.328 11.0245 12.88 11.7765C12.432 12.5285 11.712 13.1285 10.72 13.5765C9.744 14.0245 8.432 14.2485 6.784 14.2485H5.536C5.536 15.1125 5.536 15.9605 5.536 16.7925C5.552 17.6245 5.568 18.4725 5.584 19.3365L7.816 19.6005V20.5845H1V19.6005L3.208 19.3365C3.24 18.3285 3.256 17.3045 3.256 16.2645C3.256 15.2245 3.256 14.1845 3.256 13.1445V11.9685C3.256 10.9285 3.256 9.89646 3.256 8.87246C3.256 7.83246 3.24 6.80046 3.208 5.77646L1 5.51246Z" fill="url(#paint0_linear)"/>
<path d="M24.2358 20.8245C23.6598 20.8245 23.1798 20.6565 22.7958 20.3205C22.4118 19.9845 22.1718 19.5365 22.0758 18.9765C21.4198 19.6165 20.8438 20.0965 20.3478 20.4165C19.8518 20.7365 19.2518 20.8965 18.5478 20.8965C17.6678 20.8965 16.9078 20.6485 16.2678 20.1525C15.6438 19.6405 15.3318 18.8885 15.3318 17.8965C15.3318 17.4325 15.4358 17.0005 15.6438 16.6005C15.8678 16.2005 16.2678 15.8085 16.8438 15.4245C17.4198 15.0405 18.2438 14.6565 19.3158 14.2725C19.6838 14.1445 20.1078 14.0085 20.5878 13.8645C21.0678 13.7205 21.5478 13.5925 22.0278 13.4805V12.8805C22.0278 11.7125 21.8518 10.9365 21.4998 10.5525C21.1478 10.1685 20.5718 9.97646 19.7718 9.97646C19.5958 9.97646 19.3958 9.98446 19.1718 10.0005C18.9638 10.0165 18.7318 10.0565 18.4758 10.1205L18.0198 11.6805C17.7958 12.4485 17.3798 12.8325 16.7718 12.8325C16.0998 12.8325 15.7238 12.5045 15.6438 11.8485C15.8678 10.9365 16.3958 10.2165 17.2278 9.68846C18.0758 9.14446 19.1078 8.87246 20.3238 8.87246C21.5878 8.87246 22.5238 9.19246 23.1318 9.83246C23.7398 10.4565 24.0438 11.5285 24.0438 13.0485V18.1605C24.0438 18.6725 24.1238 19.0405 24.2838 19.2645C24.4438 19.4725 24.6518 19.5765 24.9078 19.5765C25.1158 19.5765 25.2918 19.5285 25.4358 19.4325C25.5798 19.3365 25.7158 19.2085 25.8438 19.0485L26.3238 19.5765C26.0358 20.0405 25.7158 20.3685 25.3638 20.5605C25.0278 20.7365 24.6518 20.8245 24.2358 20.8245ZM17.4678 17.5365C17.4678 18.1765 17.6518 18.6325 18.0198 18.9045C18.3878 19.1765 18.8438 19.3125 19.3878 19.3125C19.6278 19.3125 19.8518 19.2805 20.0598 19.2165C20.2838 19.1525 20.5478 19.0325 20.8518 18.8565C21.1558 18.6645 21.5478 18.3925 22.0278 18.0405V14.3685C21.6118 14.4805 21.2038 14.6085 20.8038 14.7525C20.4038 14.8805 20.0758 14.9925 19.8198 15.0885C19.1318 15.3605 18.6198 15.6405 18.2838 15.9285C17.9478 16.2165 17.7238 16.4965 17.6118 16.7685C17.5158 17.0405 17.4678 17.2965 17.4678 17.5365Z" fill="url(#paint1_linear)"/>
<path d="M27.4778 20.5845V19.7205L29.2778 19.3845C29.2938 18.7765 29.3018 18.1205 29.3018 17.4165C29.3178 16.6965 29.3258 16.0725 29.3258 15.5445V14.4165C29.3258 13.7605 29.3178 13.2165 29.3018 12.7845C29.3018 12.3365 29.2857 11.8725 29.2537 11.3925L27.3337 11.1765V10.3365L31.0298 8.87246L31.3898 9.11246L31.3178 12.3765V15.5445C31.3178 16.0725 31.3178 16.6965 31.3178 17.4165C31.3338 18.1205 31.3498 18.7765 31.3658 19.3845L33.0457 19.7205V20.5845H27.4778ZM30.3098 6.23246C29.8618 6.23246 29.4778 6.08846 29.1578 5.80046C28.8538 5.51246 28.7017 5.14446 28.7017 4.69646C28.7017 4.23246 28.8538 3.86446 29.1578 3.59246C29.4778 3.30446 29.8618 3.16046 30.3098 3.16046C30.7578 3.16046 31.1337 3.30446 31.4377 3.59246C31.7578 3.86446 31.9178 4.23246 31.9178 4.69646C31.9178 5.14446 31.7578 5.51246 31.4377 5.80046C31.1337 6.08846 30.7578 6.23246 30.3098 6.23246Z" fill="url(#paint2_linear)"/>
<path d="M34.9212 20.5845V19.7205L36.6972 19.3845C36.7132 18.7765 36.7212 18.1205 36.7212 17.4165C36.7372 16.7125 36.7452 16.0885 36.7452 15.5445V14.3925C36.7452 13.7365 36.7372 13.1925 36.7212 12.7605C36.7212 12.3285 36.7052 11.8725 36.6732 11.3925L34.7772 11.1765V10.3365L38.1372 8.87246L38.4972 9.11246L38.6892 11.0325C39.2812 10.3925 39.9612 9.87246 40.7292 9.47246C41.4972 9.07246 42.2492 8.87246 42.9852 8.87246C44.0252 8.87246 44.7932 9.22446 45.2892 9.92846C45.8012 10.6165 46.0572 11.7445 46.0572 13.3125V15.5445C46.0572 16.0885 46.0572 16.7125 46.0572 17.4165C46.0732 18.1205 46.0892 18.7765 46.1052 19.3845L47.7852 19.7205V20.5845H42.2172V19.7205L43.9932 19.3845C44.0092 18.7925 44.0172 18.1445 44.0172 17.4405C44.0332 16.7205 44.0412 16.0885 44.0412 15.5445V13.5045C44.0412 12.4005 43.8812 11.6405 43.5612 11.2245C43.2572 10.8085 42.7532 10.6005 42.0492 10.6005C41.5052 10.6005 40.9772 10.7125 40.4652 10.9365C39.9532 11.1605 39.3932 11.5285 38.7852 12.0405V15.5445C38.7852 16.0725 38.7852 16.6965 38.7852 17.4165C38.8012 18.1205 38.8172 18.7765 38.8332 19.3845L40.4892 19.7205V20.5845H34.9212Z" fill="url(#paint3_linear)"/>
<path d="M49.2909 20.5845V19.7205L51.2109 19.3845C51.2269 18.7445 51.2349 18.1045 51.2349 17.4645C51.2509 16.8085 51.2589 16.1685 51.2589 15.5445V5.00846L49.2909 4.76846V3.92846L53.0349 2.84846L53.3709 3.04046L53.2749 6.44846V14.8245L57.3789 10.5525L55.6029 10.1205V9.18446H61.1949V10.1205L58.9389 10.4565L56.2989 13.1685L60.2349 19.4325L61.8189 19.7205V20.5845H58.5549L54.8589 14.6325L53.2749 16.2645C53.2749 16.7765 53.2749 17.2965 53.2749 17.8245C53.2909 18.3525 53.3069 18.8725 53.3229 19.3845L55.2429 19.7205V20.5845H49.2909Z" fill="url(#paint4_linear)"/>
<path d="M62.8309 20.5845V19.7205L64.6309 19.3845C64.6469 18.7765 64.6549 18.1205 64.6549 17.4165C64.6709 16.6965 64.6789 16.0725 64.6789 15.5445V14.4165C64.6789 13.7605 64.6709 13.2165 64.6549 12.7845C64.6549 12.3365 64.6389 11.8725 64.6069 11.3925L62.6869 11.1765V10.3365L66.3829 8.87246L66.7429 9.11246L66.6709 12.3765V15.5445C66.6709 16.0725 66.6709 16.6965 66.6709 17.4165C66.6869 18.1205 66.7029 18.7765 66.7189 19.3845L68.3989 19.7205V20.5845H62.8309ZM65.6629 6.23246C65.2149 6.23246 64.8309 6.08846 64.5109 5.80046C64.2069 5.51246 64.0549 5.14446 64.0549 4.69646C64.0549 4.23246 64.2069 3.86446 64.5109 3.59246C64.8309 3.30446 65.2149 3.16046 65.6629 3.16046C66.1109 3.16046 66.4869 3.30446 66.7909 3.59246C67.1109 3.86446 67.2709 4.23246 67.2709 4.69646C67.2709 5.14446 67.1109 5.51246 66.7909 5.80046C66.4869 6.08846 66.1109 6.23246 65.6629 6.23246Z" fill="url(#paint5_linear)"/>
<path d="M69.9143 20.5845V19.7205L71.8343 19.3845C71.8503 18.7285 71.8583 18.0885 71.8583 17.4645C71.8743 16.8245 71.8823 16.1845 71.8823 15.5445V5.00846L69.9143 4.76846V3.92846L73.6583 2.84846L73.9943 3.04046L73.8983 6.44846V15.5445C73.8983 16.1845 73.8983 16.8245 73.8983 17.4645C73.9143 18.1045 73.9303 18.7445 73.9463 19.3845L75.8663 19.7205V20.5845H69.9143Z" fill="url(#paint6_linear)"/>
<path d="M77.2377 20.5845V19.7205L79.1577 19.3845C79.1737 18.7285 79.1817 18.0885 79.1817 17.4645C79.1977 16.8245 79.2057 16.1845 79.2057 15.5445V5.00846L77.2377 4.76846V3.92846L80.9818 2.84846L81.3177 3.04046L81.2217 6.44846V15.5445C81.2217 16.1845 81.2217 16.8245 81.2217 17.4645C81.2377 18.1045 81.2538 18.7445 81.2698 19.3845L83.1898 19.7205V20.5845H77.2377Z" fill="url(#paint7_linear)"/>
<path d="M90.4172 9.97646C89.9692 9.97646 89.5132 10.1045 89.0492 10.3605C88.6012 10.6165 88.2092 11.0245 87.8732 11.5845C87.5532 12.1445 87.3452 12.8885 87.2492 13.8165H91.6172C92.1932 13.8165 92.5692 13.6965 92.7452 13.4565C92.9372 13.2165 93.0332 12.9205 93.0332 12.5685C93.0332 12.1045 92.9132 11.6805 92.6732 11.2965C92.4492 10.8965 92.1372 10.5765 91.7372 10.3365C91.3532 10.0965 90.9132 9.97646 90.4172 9.97646ZM90.3932 20.8965C88.7772 20.8965 87.4812 20.3765 86.5052 19.3365C85.5292 18.2805 85.0412 16.8325 85.0412 14.9925C85.0412 13.7605 85.2892 12.6885 85.7852 11.7765C86.2972 10.8645 86.9692 10.1525 87.8012 9.64046C88.6492 9.12846 89.5692 8.87246 90.5612 8.87246C91.3932 8.87246 92.1452 9.05646 92.8172 9.42446C93.4892 9.79246 94.0252 10.3205 94.4252 11.0085C94.8252 11.6805 95.0252 12.5045 95.0252 13.4805C95.0252 13.7525 95.0092 14.0085 94.9772 14.2485C94.9452 14.4725 94.9052 14.6645 94.8572 14.8245H87.2012C87.2332 16.2965 87.6012 17.4165 88.3052 18.1845C89.0092 18.9525 89.9372 19.3365 91.0892 19.3365C91.8572 19.3365 92.4972 19.1845 93.0092 18.8805C93.5212 18.5605 93.9932 18.1525 94.4252 17.6565L95.0012 18.1125C94.5532 18.9605 93.9452 19.6405 93.1772 20.1525C92.4092 20.6485 91.4812 20.8965 90.3932 20.8965Z" fill="url(#paint8_linear)"/>
<path d="M97.3786 20.5845V19.7205L99.1066 19.4085C99.1226 18.8005 99.1306 18.1445 99.1306 17.4405C99.1466 16.7205 99.1546 16.0885 99.1546 15.5445V14.3925C99.1546 13.7365 99.1466 13.1925 99.1306 12.7605C99.1306 12.3285 99.1146 11.8725 99.0826 11.3925L97.1866 11.1765V10.3365L100.547 8.87246L100.907 9.11246L101.171 11.9445C101.571 10.9845 102.083 10.2325 102.707 9.68846C103.347 9.14446 103.987 8.87246 104.627 8.87246C104.995 8.87246 105.339 8.95246 105.659 9.11246C105.979 9.27246 106.211 9.48846 106.355 9.76046C106.355 10.9285 105.883 11.5125 104.939 11.5125C104.667 11.5125 104.411 11.4645 104.171 11.3685C103.931 11.2565 103.699 11.1045 103.475 10.9125L103.187 10.6485C102.707 11.0005 102.307 11.4325 101.987 11.9445C101.667 12.4565 101.403 13.0565 101.195 13.7445V15.5445C101.195 16.0725 101.195 16.6885 101.195 17.3925C101.211 18.0965 101.227 18.7525 101.243 19.3605L103.211 19.7205V20.5845H97.3786Z" fill="url(#paint9_linear)"/>
<path d="M113.335 20.5845V19.7205L115.231 19.3845C115.247 18.7445 115.255 18.1045 115.255 17.4645C115.271 16.8245 115.279 16.1845 115.279 15.5445V10.4565H113.287V9.40046L115.327 9.13646C115.439 7.85646 115.615 6.82446 115.855 6.04046C116.111 5.24046 116.535 4.54446 117.127 3.95246C117.639 3.44046 118.175 3.08846 118.735 2.89646C119.295 2.70446 119.847 2.60846 120.391 2.60846C120.951 2.60846 121.447 2.71246 121.879 2.92046C122.311 3.11246 122.583 3.44046 122.695 3.90446C122.679 4.20846 122.543 4.46446 122.287 4.67246C122.031 4.88046 121.679 4.98446 121.231 4.98446C120.655 4.98446 120.079 4.74446 119.503 4.26446L118.831 3.73646C118.767 3.78446 118.703 3.83246 118.639 3.88046C118.591 3.92846 118.543 3.97646 118.495 4.02446C118.079 4.44046 117.759 5.07246 117.535 5.92046C117.327 6.75246 117.239 7.84046 117.271 9.18446H120.583V10.4565H117.319V15.5445C117.319 16.1845 117.319 16.8245 117.319 17.4645C117.335 18.0885 117.351 18.7205 117.367 19.3605L119.527 19.7205V20.5845H113.335Z" fill="url(#paint10_linear)"/>
<path d="M127.354 20.8965C126.426 20.8965 125.538 20.6805 124.69 20.2485C123.858 19.8005 123.178 19.1365 122.65 18.2565C122.122 17.3605 121.858 16.2565 121.858 14.9445C121.858 13.6165 122.122 12.5045 122.65 11.6085C123.178 10.6965 123.858 10.0165 124.69 9.56846C125.538 9.10446 126.426 8.87246 127.354 8.87246C128.282 8.87246 129.162 9.10446 129.994 9.56846C130.842 10.0165 131.53 10.6965 132.058 11.6085C132.602 12.5045 132.874 13.6165 132.874 14.9445C132.874 16.2565 132.602 17.3605 132.058 18.2565C131.53 19.1365 130.842 19.8005 129.994 20.2485C129.162 20.6805 128.282 20.8965 127.354 20.8965ZM127.354 19.8165C128.394 19.8165 129.194 19.4085 129.754 18.5925C130.314 17.7605 130.594 16.5445 130.594 14.9445C130.594 13.3285 130.314 12.0965 129.754 11.2485C129.194 10.4005 128.394 9.97646 127.354 9.97646C126.314 9.97646 125.514 10.4005 124.954 11.2485C124.41 12.0965 124.138 13.3285 124.138 14.9445C124.138 16.5445 124.41 17.7605 124.954 18.5925C125.514 19.4085 126.314 19.8165 127.354 19.8165Z" fill="url(#paint11_linear)"/>
<path d="M135.133 20.5845V19.7205L136.861 19.4085C136.877 18.8005 136.885 18.1445 136.885 17.4405C136.901 16.7205 136.909 16.0885 136.909 15.5445V14.3925C136.909 13.7365 136.901 13.1925 136.885 12.7605C136.885 12.3285 136.869 11.8725 136.837 11.3925L134.941 11.1765V10.3365L138.301 8.87246L138.661 9.11246L138.925 11.9445C139.325 10.9845 139.837 10.2325 140.461 9.68846C141.101 9.14446 141.741 8.87246 142.381 8.87246C142.749 8.87246 143.093 8.95246 143.413 9.11246C143.733 9.27246 143.965 9.48846 144.109 9.76046C144.109 10.9285 143.637 11.5125 142.693 11.5125C142.421 11.5125 142.165 11.4645 141.925 11.3685C141.685 11.2565 141.453 11.1045 141.229 10.9125L140.941 10.6485C140.461 11.0005 140.061 11.4325 139.741 11.9445C139.421 12.4565 139.157 13.0565 138.949 13.7445V15.5445C138.949 16.0725 138.949 16.6885 138.949 17.3925C138.965 18.0965 138.981 18.7525 138.997 19.3605L140.965 19.7205V20.5845H135.133Z" fill="url(#paint12_linear)"/>
<path d="M151.281 5.51246V4.52846H163.233L163.401 8.77646H162.033L161.505 5.72846H155.865C155.849 6.75246 155.833 7.77646 155.817 8.80046C155.817 9.82446 155.817 10.8325 155.817 11.8245H159.537L159.873 9.54446H160.977V15.4485H159.873L159.537 12.9525H155.817C155.817 14.1365 155.817 15.2485 155.817 16.2885C155.833 17.3285 155.849 18.3445 155.865 19.3365L158.097 19.6005V20.5845H151.281V19.6005L153.489 19.3365C153.521 18.3285 153.537 17.3045 153.537 16.2645C153.537 15.2245 153.537 14.1845 153.537 13.1445V11.9685C153.537 10.9285 153.537 9.89646 153.537 8.87246C153.537 7.83246 153.521 6.80046 153.489 5.77646L151.281 5.51246Z" fill="url(#paint13_linear)"/>
<path d="M169.89 20.8965C168.962 20.8965 168.074 20.6805 167.226 20.2485C166.394 19.8005 165.714 19.1365 165.186 18.2565C164.658 17.3605 164.394 16.2565 164.394 14.9445C164.394 13.6165 164.658 12.5045 165.186 11.6085C165.714 10.6965 166.394 10.0165 167.226 9.56846C168.074 9.10446 168.962 8.87246 169.89 8.87246C170.818 8.87246 171.698 9.10446 172.53 9.56846C173.378 10.0165 174.066 10.6965 174.594 11.6085C175.138 12.5045 175.41 13.6165 175.41 14.9445C175.41 16.2565 175.138 17.3605 174.594 18.2565C174.066 19.1365 173.378 19.8005 172.53 20.2485C171.698 20.6805 170.818 20.8965 169.89 20.8965ZM169.89 19.8165C170.93 19.8165 171.73 19.4085 172.29 18.5925C172.85 17.7605 173.13 16.5445 173.13 14.9445C173.13 13.3285 172.85 12.0965 172.29 11.2485C171.73 10.4005 170.93 9.97646 169.89 9.97646C168.85 9.97646 168.05 10.4005 167.49 11.2485C166.946 12.0965 166.674 13.3285 166.674 14.9445C166.674 16.5445 166.946 17.7605 167.49 18.5925C168.05 19.4085 168.85 19.8165 169.89 19.8165Z" fill="url(#paint14_linear)"/>
<path d="M183.237 20.8965C182.309 20.8965 181.421 20.6805 180.573 20.2485C179.741 19.8005 179.061 19.1365 178.533 18.2565C178.005 17.3605 177.741 16.2565 177.741 14.9445C177.741 13.6165 178.005 12.5045 178.533 11.6085C179.061 10.6965 179.741 10.0165 180.573 9.56846C181.421 9.10446 182.309 8.87246 183.237 8.87246C184.165 8.87246 185.045 9.10446 185.877 9.56846C186.725 10.0165 187.413 10.6965 187.941 11.6085C188.485 12.5045 188.757 13.6165 188.757 14.9445C188.757 16.2565 188.485 17.3605 187.941 18.2565C187.413 19.1365 186.725 19.8005 185.877 20.2485C185.045 20.6805 184.165 20.8965 183.237 20.8965ZM183.237 19.8165C184.277 19.8165 185.077 19.4085 185.637 18.5925C186.197 17.7605 186.477 16.5445 186.477 14.9445C186.477 13.3285 186.197 12.0965 185.637 11.2485C185.077 10.4005 184.277 9.97646 183.237 9.97646C182.197 9.97646 181.397 10.4005 180.837 11.2485C180.293 12.0965 180.021 13.3285 180.021 14.9445C180.021 16.5445 180.293 17.7605 180.837 18.5925C181.397 19.4085 182.197 19.8165 183.237 19.8165Z" fill="url(#paint15_linear)"/>
<path d="M193.248 14.9445C193.248 16.5125 193.56 17.6725 194.184 18.4245C194.824 19.1605 195.624 19.5285 196.584 19.5285C197.112 19.5285 197.576 19.4245 197.976 19.2165C198.392 18.9925 198.824 18.6325 199.272 18.1365V11.4885C198.728 11.0085 198.24 10.6805 197.808 10.5045C197.376 10.3285 196.96 10.2405 196.56 10.2405C195.968 10.2405 195.416 10.4085 194.904 10.7445C194.408 11.0645 194.008 11.5765 193.704 12.2805C193.4 12.9685 193.248 13.8565 193.248 14.9445ZM199.512 20.8245L199.344 19.1685C198.928 19.7125 198.448 20.1365 197.904 20.4405C197.376 20.7445 196.736 20.8965 195.984 20.8965C195.008 20.8965 194.152 20.6485 193.416 20.1525C192.68 19.6565 192.104 18.9685 191.688 18.0885C191.288 17.1925 191.088 16.1605 191.088 14.9925C191.088 13.7605 191.312 12.6885 191.76 11.7765C192.208 10.8645 192.816 10.1525 193.584 9.64046C194.352 9.12846 195.224 8.87246 196.2 8.87246C196.76 8.87246 197.296 8.98446 197.808 9.20846C198.336 9.43246 198.848 9.84046 199.344 10.4325V5.00846L197.304 4.76846V3.92846L201.048 2.84846L201.384 3.04046L201.288 6.44846V19.4325L203.232 19.7205V20.5845L199.512 20.8245Z" fill="url(#paint16_linear)"/>
<path d="M215.169 12.8565C215.169 14.0245 215.169 15.1525 215.169 16.2405C215.185 17.3285 215.201 18.4005 215.217 19.4565H217.113C218.969 19.4565 220.393 18.8565 221.385 17.6565C222.377 16.4405 222.873 14.7445 222.873 12.5685C222.873 10.3125 222.385 8.59246 221.409 7.40846C220.433 6.22446 219.073 5.63246 217.329 5.63246H215.217C215.201 6.65646 215.185 7.70446 215.169 8.77646C215.169 9.83246 215.169 10.8965 215.169 11.9685V12.8565ZM210.633 5.51246V4.52846H217.713C219.249 4.52846 220.601 4.84046 221.769 5.46446C222.937 6.07246 223.849 6.97646 224.505 8.17646C225.161 9.36046 225.489 10.8245 225.489 12.5685C225.489 14.2965 225.129 15.7605 224.409 16.9605C223.689 18.1445 222.705 19.0485 221.457 19.6725C220.225 20.2805 218.825 20.5845 217.257 20.5845H210.633V19.6005L212.841 19.3365C212.873 18.3125 212.889 17.2725 212.889 16.2165C212.889 15.1445 212.889 14.0245 212.889 12.8565V11.9685C212.889 10.9285 212.889 9.89646 212.889 8.87246C212.889 7.83246 212.873 6.80046 212.841 5.77646L210.633 5.51246Z" fill="url(#paint17_linear)"/>
<path d="M233.247 9.97646C232.799 9.97646 232.343 10.1045 231.879 10.3605C231.431 10.6165 231.039 11.0245 230.703 11.5845C230.383 12.1445 230.175 12.8885 230.079 13.8165H234.447C235.023 13.8165 235.399 13.6965 235.575 13.4565C235.767 13.2165 235.863 12.9205 235.863 12.5685C235.863 12.1045 235.743 11.6805 235.503 11.2965C235.279 10.8965 234.967 10.5765 234.567 10.3365C234.183 10.0965 233.743 9.97646 233.247 9.97646ZM233.223 20.8965C231.607 20.8965 230.311 20.3765 229.335 19.3365C228.359 18.2805 227.871 16.8325 227.871 14.9925C227.871 13.7605 228.119 12.6885 228.615 11.7765C229.127 10.8645 229.799 10.1525 230.631 9.64046C231.479 9.12846 232.399 8.87246 233.391 8.87246C234.223 8.87246 234.975 9.05646 235.647 9.42446C236.319 9.79246 236.855 10.3205 237.255 11.0085C237.655 11.6805 237.855 12.5045 237.855 13.4805C237.855 13.7525 237.839 14.0085 237.807 14.2485C237.775 14.4725 237.735 14.6645 237.687 14.8245H230.031C230.063 16.2965 230.431 17.4165 231.135 18.1845C231.839 18.9525 232.767 19.3365 233.919 19.3365C234.687 19.3365 235.327 19.1845 235.839 18.8805C236.351 18.5605 236.823 18.1525 237.255 17.6565L237.831 18.1125C237.383 18.9605 236.775 19.6405 236.007 20.1525C235.239 20.6485 234.311 20.8965 233.223 20.8965Z" fill="url(#paint18_linear)"/>
<path d="M239.566 20.5845V19.7205L241.486 19.3845C241.502 18.7285 241.51 18.0885 241.51 17.4645C241.526 16.8245 241.534 16.1845 241.534 15.5445V5.00846L239.566 4.76846V3.92846L243.31 2.84846L243.646 3.04046L243.55 6.44846V15.5445C243.55 16.1845 243.55 16.8245 243.55 17.4645C243.566 18.1045 243.582 18.7445 243.598 19.3845L245.518 19.7205V20.5845H239.566Z" fill="url(#paint19_linear)"/>
<path d="M247.129 20.5845V19.7205L248.929 19.3845C248.945 18.7765 248.953 18.1205 248.953 17.4165C248.969 16.6965 248.977 16.0725 248.977 15.5445V14.4165C248.977 13.7605 248.969 13.2165 248.953 12.7845C248.953 12.3365 248.937 11.8725 248.905 11.3925L246.985 11.1765V10.3365L250.681 8.87246L251.041 9.11246L250.969 12.3765V15.5445C250.969 16.0725 250.969 16.6965 250.969 17.4165C250.985 18.1205 251.001 18.7765 251.017 19.3845L252.697 19.7205V20.5845H247.129ZM249.961 6.23246C249.513 6.23246 249.129 6.08846 248.809 5.80046C248.505 5.51246 248.353 5.14446 248.353 4.69646C248.353 4.23246 248.505 3.86446 248.809 3.59246C249.129 3.30446 249.513 3.16046 249.961 3.16046C250.409 3.16046 250.785 3.30446 251.089 3.59246C251.409 3.86446 251.569 4.23246 251.569 4.69646C251.569 5.14446 251.409 5.51246 251.089 5.80046C250.785 6.08846 250.409 6.23246 249.961 6.23246Z" fill="url(#paint20_linear)"/>
<path d="M260.605 10.1205V9.18446H265.165V10.1205L263.845 10.4325L259.957 20.7285H258.925L254.557 10.3605L253.261 10.1205V9.18446H259.069V10.1205L256.957 10.4325L259.885 18.1125L262.549 10.4565L260.605 10.1205Z" fill="url(#paint21_linear)"/>
<path d="M271.541 9.97646C271.093 9.97646 270.637 10.1045 270.173 10.3605C269.725 10.6165 269.333 11.0245 268.997 11.5845C268.677 12.1445 268.469 12.8885 268.373 13.8165H272.741C273.317 13.8165 273.693 13.6965 273.869 13.4565C274.061 13.2165 274.157 12.9205 274.157 12.5685C274.157 12.1045 274.037 11.6805 273.797 11.2965C273.573 10.8965 273.261 10.5765 272.861 10.3365C272.477 10.0965 272.037 9.97646 271.541 9.97646ZM271.517 20.8965C269.901 20.8965 268.605 20.3765 267.629 19.3365C266.653 18.2805 266.165 16.8325 266.165 14.9925C266.165 13.7605 266.413 12.6885 266.909 11.7765C267.421 10.8645 268.093 10.1525 268.925 9.64046C269.773 9.12846 270.693 8.87246 271.685 8.87246C272.517 8.87246 273.269 9.05646 273.941 9.42446C274.613 9.79246 275.149 10.3205 275.549 11.0085C275.949 11.6805 276.149 12.5045 276.149 13.4805C276.149 13.7525 276.133 14.0085 276.101 14.2485C276.069 14.4725 276.029 14.6645 275.981 14.8245H268.325C268.357 16.2965 268.725 17.4165 269.429 18.1845C270.133 18.9525 271.061 19.3365 272.213 19.3365C272.981 19.3365 273.621 19.1845 274.133 18.8805C274.645 18.5605 275.117 18.1525 275.549 17.6565L276.125 18.1125C275.677 18.9605 275.069 19.6405 274.301 20.1525C273.533 20.6485 272.605 20.8965 271.517 20.8965Z" fill="url(#paint22_linear)"/>
<path d="M278.502 20.5845V19.7205L280.23 19.4085C280.246 18.8005 280.254 18.1445 280.254 17.4405C280.27 16.7205 280.278 16.0885 280.278 15.5445V14.3925C280.278 13.7365 280.27 13.1925 280.254 12.7605C280.254 12.3285 280.238 11.8725 280.206 11.3925L278.31 11.1765V10.3365L281.67 8.87246L282.03 9.11246L282.294 11.9445C282.694 10.9845 283.206 10.2325 283.83 9.68846C284.47 9.14446 285.11 8.87246 285.75 8.87246C286.118 8.87246 286.462 8.95246 286.782 9.11246C287.102 9.27246 287.334 9.48846 287.478 9.76046C287.478 10.9285 287.006 11.5125 286.062 11.5125C285.79 11.5125 285.534 11.4645 285.294 11.3685C285.054 11.2565 284.822 11.1045 284.598 10.9125L284.31 10.6485C283.83 11.0005 283.43 11.4325 283.11 11.9445C282.79 12.4565 282.526 13.0565 282.318 13.7445V15.5445C282.318 16.0725 282.318 16.6885 282.318 17.3925C282.334 18.0965 282.35 18.7525 282.366 19.3605L284.334 19.7205V20.5845H278.502Z" fill="url(#paint23_linear)"/>
<path d="M295.66 10.0485V9.18446H300.34V10.0485L299.044 10.3125L295.18 20.5125C294.38 22.6405 293.604 24.1765 292.852 25.1205C292.116 26.0805 291.252 26.5605 290.26 26.5605C289.668 26.5605 289.148 26.4085 288.7 26.1045C288.268 25.8165 288.052 25.4405 288.052 24.9765C288.132 24.6245 288.324 24.3605 288.628 24.1845C288.948 24.0085 289.292 23.9205 289.66 23.9205C289.98 23.9205 290.276 23.9845 290.548 24.1125C290.82 24.2565 291.116 24.4965 291.436 24.8325L291.556 24.9525C292.068 24.5205 292.5 23.9925 292.852 23.3685C293.204 22.7605 293.492 22.1365 293.716 21.4965L293.812 21.2085L289.468 10.2405L288.148 10.0485V9.18446H293.908V10.0725L291.796 10.3125L294.796 18.4965L297.748 10.3365L295.66 10.0485Z" fill="url(#paint24_linear)"/>
<path d="M301.928 20.8965C301.448 20.8965 301.04 20.7285 300.704 20.3925C300.384 20.0565 300.224 19.6565 300.224 19.1925C300.224 18.7125 300.384 18.3045 300.704 17.9685C301.04 17.6325 301.448 17.4645 301.928 17.4645C302.408 17.4645 302.808 17.6325 303.128 17.9685C303.464 18.3045 303.632 18.7125 303.632 19.1925C303.632 19.6565 303.464 20.0565 303.128 20.3925C302.808 20.7285 302.408 20.8965 301.928 20.8965Z" fill="url(#paint25_linear)"/>
<path d="M309.299 20.8965C308.819 20.8965 308.411 20.7285 308.075 20.3925C307.755 20.0565 307.595 19.6565 307.595 19.1925C307.595 18.7125 307.755 18.3045 308.075 17.9685C308.411 17.6325 308.819 17.4645 309.299 17.4645C309.779 17.4645 310.179 17.6325 310.499 17.9685C310.835 18.3045 311.003 18.7125 311.003 19.1925C311.003 19.6565 310.835 20.0565 310.499 20.3925C310.179 20.7285 309.779 20.8965 309.299 20.8965Z" fill="url(#paint26_linear)"/>
<path d="M316.549 20.8965C316.117 20.8965 315.749 20.7445 315.445 20.4405C315.141 20.1205 314.989 19.7525 314.989 19.3365C314.989 18.9205 315.141 18.5605 315.445 18.2565C315.749 17.9365 316.117 17.7765 316.549 17.7765C316.981 17.7765 317.341 17.9365 317.629 18.2565C317.933 18.5605 318.085 18.9205 318.085 19.3365C318.085 19.7525 317.933 20.1205 317.629 20.4405C317.341 20.7445 316.981 20.8965 316.549 20.8965ZM316.549 4.16846C316.965 4.16846 317.293 4.28846 317.533 4.52846C317.789 4.76846 317.917 5.15246 317.917 5.68046C317.917 6.12846 317.861 6.90446 317.749 8.00846C317.637 9.09646 317.493 10.4725 317.317 12.1365L316.981 15.4245H316.093L315.781 12.1365C315.605 10.4725 315.453 9.09646 315.325 8.00846C315.213 6.90446 315.157 6.12846 315.157 5.68046C315.157 5.15246 315.277 4.76846 315.517 4.52846C315.773 4.28846 316.117 4.16846 316.549 4.16846Z" fill="url(#paint27_linear)"/>
</g>
<defs>
<filter id="filter0_d" x="0" y="0.608459" width="319.085" height="25.952" filterUnits="userSpaceOnUse" color-interpolation-filters="sRGB">
<feFlood flood-opacity="0" result="BackgroundImageFix"/>
<feColorMatrix in="SourceAlpha" type="matrix" values="0 0 0 0 0 0 0 0 0 0 0 0 0 0 0 0 0 0 127 0"/>
<feOffset dy="-1"/>
<feGaussianBlur stdDeviation="0.5"/>
<feColorMatrix type="matrix" values="0 0 0 0 0 0 0 0 0 0 0 0 0 0 0 0 0 0 0.25 0"/>
<feBlend mode="normal" in2="BackgroundImageFix" result="effect1_dropShadow"/>
<feBlend mode="normal" in="SourceGraphic" in2="effect1_dropShadow" result="shape"/>
</filter>
<linearGradient id="paint0_linear" x1="313.475" y1="13.5845" x2="-0.525398" y2="13.5845" gradientUnits="userSpaceOnUse">
<stop stop-color="#F2C94C"/>
<stop offset="1" stop-color="#FF0066"/>
</linearGradient>
<linearGradient id="paint1_linear" x1="313.475" y1="13.5845" x2="-0.525398" y2="13.5845" gradientUnits="userSpaceOnUse">
<stop stop-color="#F2C94C"/>
<stop offset="1" stop-color="#FF0066"/>
</linearGradient>
<linearGradient id="paint2_linear" x1="313.475" y1="13.5845" x2="-0.525398" y2="13.5845" gradientUnits="userSpaceOnUse">
<stop stop-color="#F2C94C"/>
<stop offset="1" stop-color="#FF0066"/>
</linearGradient>
<linearGradient id="paint3_linear" x1="313.475" y1="13.5845" x2="-0.525398" y2="13.5845" gradientUnits="userSpaceOnUse">
<stop stop-color="#F2C94C"/>
<stop offset="1" stop-color="#FF0066"/>
</linearGradient>
<linearGradient id="paint4_linear" x1="313.475" y1="13.5845" x2="-0.525398" y2="13.5845" gradientUnits="userSpaceOnUse">
<stop stop-color="#F2C94C"/>
<stop offset="1" stop-color="#FF0066"/>
</linearGradient>
<linearGradient id="paint5_linear" x1="313.475" y1="13.5845" x2="-0.525398" y2="13.5845" gradientUnits="userSpaceOnUse">
<stop stop-color="#F2C94C"/>
<stop offset="1" stop-color="#FF0066"/>
</linearGradient>
<linearGradient id="paint6_linear" x1="313.475" y1="13.5845" x2="-0.525398" y2="13.5845" gradientUnits="userSpaceOnUse">
<stop stop-color="#F2C94C"/>
<stop offset="1" stop-color="#FF0066"/>
</linearGradient>
<linearGradient id="paint7_linear" x1="313.475" y1="13.5845" x2="-0.525398" y2="13.5845" gradientUnits="userSpaceOnUse">
<stop stop-color="#F2C94C"/>
<stop offset="1" stop-color="#FF0066"/>
</linearGradient>
<linearGradient id="paint8_linear" x1="313.475" y1="13.5845" x2="-0.525398" y2="13.5845" gradientUnits="userSpaceOnUse">
<stop stop-color="#F2C94C"/>
<stop offset="1" stop-color="#FF0066"/>
</linearGradient>
<linearGradient id="paint9_linear" x1="313.475" y1="13.5845" x2="-0.525398" y2="13.5845" gradientUnits="userSpaceOnUse">
<stop stop-color="#F2C94C"/>
<stop offset="1" stop-color="#FF0066"/>
</linearGradient>
<linearGradient id="paint10_linear" x1="313.475" y1="13.5845" x2="-0.525398" y2="13.5845" gradientUnits="userSpaceOnUse">
<stop stop-color="#F2C94C"/>
<stop offset="1" stop-color="#FF0066"/>
</linearGradient>
<linearGradient id="paint11_linear" x1="313.475" y1="13.5845" x2="-0.525398" y2="13.5845" gradientUnits="userSpaceOnUse">
<stop stop-color="#F2C94C"/>
<stop offset="1" stop-color="#FF0066"/>
</linearGradient>
<linearGradient id="paint12_linear" x1="313.475" y1="13.5845" x2="-0.525398" y2="13.5845" gradientUnits="userSpaceOnUse">
<stop stop-color="#F2C94C"/>
<stop offset="1" stop-color="#FF0066"/>
</linearGradient>
<linearGradient id="paint13_linear" x1="313.475" y1="13.5845" x2="-0.525398" y2="13.5845" gradientUnits="userSpaceOnUse">
<stop stop-color="#F2C94C"/>
<stop offset="1" stop-color="#FF0066"/>
</linearGradient>
<linearGradient id="paint14_linear" x1="313.475" y1="13.5845" x2="-0.525398" y2="13.5845" gradientUnits="userSpaceOnUse">
<stop stop-color="#F2C94C"/>
<stop offset="1" stop-color="#FF0066"/>
</linearGradient>
<linearGradient id="paint15_linear" x1="313.475" y1="13.5845" x2="-0.525398" y2="13.5845" gradientUnits="userSpaceOnUse">
<stop stop-color="#F2C94C"/>
<stop offset="1" stop-color="#FF0066"/>
</linearGradient>
<linearGradient id="paint16_linear" x1="313.475" y1="13.5845" x2="-0.525398" y2="13.5845" gradientUnits="userSpaceOnUse">
<stop stop-color="#F2C94C"/>
<stop offset="1" stop-color="#FF0066"/>
</linearGradient>
<linearGradient id="paint17_linear" x1="313.475" y1="13.5845" x2="-0.525398" y2="13.5845" gradientUnits="userSpaceOnUse">
<stop stop-color="#F2C94C"/>
<stop offset="1" stop-color="#FF0066"/>
</linearGradient>
<linearGradient id="paint18_linear" x1="313.475" y1="13.5845" x2="-0.525398" y2="13.5845" gradientUnits="userSpaceOnUse">
<stop stop-color="#F2C94C"/>
<stop offset="1" stop-color="#FF0066"/>
</linearGradient>
<linearGradient id="paint19_linear" x1="313.475" y1="13.5845" x2="-0.525398" y2="13.5845" gradientUnits="userSpaceOnUse">
<stop stop-color="#F2C94C"/>
<stop offset="1" stop-color="#FF0066"/>
</linearGradient>
<linearGradient id="paint20_linear" x1="313.475" y1="13.5845" x2="-0.525398" y2="13.5845" gradientUnits="userSpaceOnUse">
<stop stop-color="#F2C94C"/>
<stop offset="1" stop-color="#FF0066"/>
</linearGradient>
<linearGradient id="paint21_linear" x1="313.475" y1="13.5845" x2="-0.525398" y2="13.5845" gradientUnits="userSpaceOnUse">
<stop stop-color="#F2C94C"/>
<stop offset="1" stop-color="#FF0066"/>
</linearGradient>
<linearGradient id="paint22_linear" x1="313.475" y1="13.5845" x2="-0.525398" y2="13.5845" gradientUnits="userSpaceOnUse">
<stop stop-color="#F2C94C"/>
<stop offset="1" stop-color="#FF0066"/>
</linearGradient>
<linearGradient id="paint23_linear" x1="313.475" y1="13.5845" x2="-0.525398" y2="13.5845" gradientUnits="userSpaceOnUse">
<stop stop-color="#F2C94C"/>
<stop offset="1" stop-color="#FF0066"/>
</linearGradient>
<linearGradient id="paint24_linear" x1="313.475" y1="13.5845" x2="-0.525398" y2="13.5845" gradientUnits="userSpaceOnUse">
<stop stop-color="#F2C94C"/>
<stop offset="1" stop-color="#FF0066"/>
</linearGradient>
<linearGradient id="paint25_linear" x1="313.475" y1="13.5845" x2="-0.525398" y2="13.5845" gradientUnits="userSpaceOnUse">
<stop stop-color="#F2C94C"/>
<stop offset="1" stop-color="#FF0066"/>
</linearGradient>
<linearGradient id="paint26_linear" x1="313.475" y1="13.5845" x2="-0.525398" y2="13.5845" gradientUnits="userSpaceOnUse">
<stop stop-color="#F2C94C"/>
<stop offset="1" stop-color="#FF0066"/>
</linearGradient>
<linearGradient id="paint27_linear" x1="313.475" y1="13.5845" x2="-0.525398" y2="13.5845" gradientUnits="userSpaceOnUse">
<stop stop-color="#F2C94C"/>
<stop offset="1" stop-color="#FF0066"/>
</linearGradient>
</defs>
</svg>
